
<svg width="25" height="34" viewBox="0 0 25 34" fill="none" xmlns="http://www.w3.org/2000/svg">
<path d="M12.7729 13.7248L9.78632 12.763L5.65027 13.729L2.54824 14.6951L0.480202 16.6271L11.8544 0.204858L11.0205 6.96694L12.7729 13.7248Z" fill="#8F20A1"/>
<path d="M12.2668 19.2747L15.4601 20.0032L19.566 18.709L22.612 17.4962L24.4654 15.3967L15.0705 32.7531L14.9937 25.9098L12.2668 19.2747Z" fill="#8F20A1"/>
<path d="M21.0302 14.4902L15.8601 7.7281L14.0365 5.70475L14.0365 3.77272L13.1581 5.80859e-06L24.1323 14.4902L13.7921 18.3543L18.0759 10.6261L21.0302 14.4902Z" fill="#8F20A1"/>
<path d="M4.07854 19.3931L9.77837 26.1733L11.7645 28.1954L11.8946 30.1685L13.0397 34L0.931852 19.4683L11.1606 15.2713L7.33558 23.2675L4.07854 19.3931Z" fill="#8F20A1"/>
<svg width="39" height="49" viewBox="0 0 39 49" fill="none" xmlns="http://www.w3.org/2000/svg">
<path d="M19.9257 19.7803L15.2667 18.3943L8.81442 19.7865L3.97525 21.1787L0.749119 23.9631L18.4928 0.295756L17.1919 10.0411L19.9257 19.7803Z" fill="#8F20A1"/>
<path d="M19.1363 27.7785L24.1178 28.8284L30.5229 26.9632L35.2748 25.2154L38.166 22.1897L23.51 47.2033L23.3902 37.3409L19.1363 27.7785Z" fill="#8F20A1"/>
<path d="M32.8072 20.8831L24.7418 11.1378L21.8969 8.22174L21.8969 5.43735L20.5266 0.000207886L37.6463 20.8831L21.5158 26.4519L28.1984 15.3143L32.8072 20.8831Z" fill="#8F20A1"/>
<path d="M6.36252 27.9492L15.2543 37.7208L18.3527 40.6349L18.5556 43.4785L20.3419 49.0004L1.45369 28.0576L17.4105 22.009L11.4435 33.5329L6.36252 27.9492Z" fill="#8F20A1"/>
</svg>
